<svg width="80" height="80" viewBox="0 0 80 80" fill="none" xmlns="http://www.w3.org/2000/svg">
<rect width="80" height="80" rx="40" fill="#FCE9D2"/>
<path d="M48 26.6665H32C29.7867 26.6665 28 28.4398 28 30.6265V45.1732C28 47.3598 29.7867 49.1465 32 49.1465H33.0133C34.0667 49.1465 35.0933 49.5598 35.84 50.3065L38.12 52.5598C39.16 53.5865 40.84 53.5865 41.88 52.5598L44.16 50.3065C44.9067 49.5598 45.9333 49.1465 46.9867 49.1465H48C50.2133 49.1465 52 47.3598 52 45.1732V30.6265C52 28.4398 50.2133 26.6665 48 26.6665ZM40 31.3998C41.44 31.3998 42.6 32.5732 42.6 33.9998C42.6 35.4132 41.48 36.5465 40.0933 36.5998C40.04 36.5998 39.96 36.5998 39.8933 36.5998C38.4933 36.5465 37.3867 35.4132 37.3867 33.9998C37.4 32.5732 38.56 31.3998 40 31.3998ZM43.6667 43.5865C41.6533 44.9332 38.3467 44.9332 36.3333 43.5865C34.56 42.4132 34.56 40.4665 36.3333 39.2798C38.36 37.9332 41.6667 37.9332 43.6667 39.2798C45.44 40.4665 45.44 42.3998 43.6667 43.5865Z" fill="#F66B03"/>
</svg>
