<svg width="81" height="80" viewBox="0 0 81 80" fill="none" xmlns="http://www.w3.org/2000/svg">
<rect x="0.5" width="80" height="80" rx="40" fill="#FEF0E6"/>
<path d="M38.1665 37.3734C38.1665 38.0934 38.3665 38.2 38.8198 38.36L39.4998 38.6V36.3334H39.0998C38.5932 36.3334 38.1665 36.8 38.1665 37.3734Z" fill="#F66B03"/>
<path d="M41.5 43.6667H41.9C42.42 43.6667 42.8333 43.2 42.8333 42.6267C42.8333 41.9067 42.6333 41.8 42.18 41.64L41.5 41.4V43.6667Z" fill="#F66B03"/>
<path d="M50.6065 31.3066L47.8732 34.04C47.6732 34.24 47.4198 34.3333 47.1665 34.3333C46.9132 34.3333 46.6598 34.24 46.4598 34.04C46.0732 33.6533 46.0732 33.0133 46.4598 32.6266L49.1932 29.8933C46.8465 27.8933 43.8198 26.6666 40.4998 26.6666C33.1398 26.6666 27.1665 32.64 27.1665 40C27.1665 47.36 33.1398 53.3333 40.4998 53.3333C47.8598 53.3333 53.8332 47.36 53.8332 40C53.8332 36.68 52.6065 33.6533 50.6065 31.3066ZM42.8332 39.76C43.6865 40.0666 44.8332 40.68 44.8332 42.64C44.8332 44.3066 43.5132 45.68 41.8998 45.68H41.4998V46.0133C41.4998 46.56 41.0465 47.0133 40.4998 47.0133C39.9532 47.0133 39.4998 46.56 39.4998 46.0133V45.68H39.3932C37.6198 45.68 36.1665 44.1866 36.1665 42.3466C36.1665 41.7866 36.6198 41.3333 37.1665 41.3333C37.7132 41.3333 38.1665 41.7866 38.1665 42.3333C38.1665 43.0666 38.7132 43.6666 39.3932 43.6666H39.4998V40.7066L38.1665 40.24C37.3132 39.9333 36.1665 39.32 36.1665 37.36C36.1665 35.6933 37.4865 34.32 39.0998 34.32H39.4998V34C39.4998 33.4533 39.9532 33 40.4998 33C41.0465 33 41.4998 33.4533 41.4998 34V34.3333H41.6065C43.3798 34.3333 44.8332 35.8266 44.8332 37.6666C44.8332 38.2133 44.3798 38.6666 43.8332 38.6666C43.2865 38.6666 42.8332 38.2133 42.8332 37.6666C42.8332 36.9333 42.2865 36.3333 41.6065 36.3333H41.4998V39.2933L42.8332 39.76Z" fill="#F66B03"/>
<path d="M54.7533 26.28C54.6467 26.04 54.46 25.84 54.2067 25.7333C54.0867 25.6933 53.9667 25.6666 53.8333 25.6666H48.5C47.9533 25.6666 47.5 26.12 47.5 26.6666C47.5 27.2133 47.9533 27.6666 48.5 27.6666H51.42L49.1933 29.8933C49.7 30.3333 50.1667 30.8 50.6067 31.3066L52.8333 29.08V32C52.8333 32.5466 53.2867 33 53.8333 33C54.38 33 54.8333 32.5466 54.8333 32V26.6666C54.8333 26.5333 54.8067 26.4133 54.7533 26.28Z" fill="#F66B03"/>
</svg>
