<svg width="80" height="80" viewBox="0 0 80 80" fill="none" xmlns="http://www.w3.org/2000/svg">
<rect width="80" height="80" rx="40" fill="#FCE9D2"/>
<path d="M39.9203 26.9468L36.7069 34.4268H33.4936C32.9603 34.4268 32.4403 34.4668 31.9336 34.5734L33.2669 31.3734L33.3203 31.2534L33.4003 31.0401C33.4403 30.9468 33.4669 30.8668 33.5069 30.8001C35.0536 27.2134 36.7869 26.0934 39.9203 26.9468Z" fill="#F66B03"/>
<path d="M48.9735 34.7865L48.9468 34.7732C48.1468 34.5465 47.3335 34.4265 46.5068 34.4265H38.1602L41.1602 27.4532L41.2002 27.3599C41.3868 27.4265 41.5868 27.5199 41.7868 27.5865L44.7335 28.8265C46.3735 29.5065 47.5202 30.2132 48.2268 31.0665C48.3468 31.2265 48.4535 31.3732 48.5602 31.5465C48.6802 31.7332 48.7735 31.9199 48.8268 32.1199C48.8802 32.2399 48.9202 32.3465 48.9468 32.4665C49.1468 33.1465 49.1602 33.9199 48.9735 34.7865Z" fill="#F66B03"/>
<path d="M40.6934 47.5468H41.0267C41.4267 47.5468 41.76 47.1868 41.76 46.7468C41.76 46.1868 41.6 46.1068 41.2534 45.9734L40.6934 45.7734V47.5468Z" fill="#F66B03"/>
<path d="M48.3863 36.6934C47.7863 36.5201 47.1597 36.4268 46.5063 36.4268H33.493C32.5863 36.4268 31.733 36.6001 30.933 36.9468C28.613 37.9468 26.9863 40.2534 26.9863 42.9334V45.5334C26.9863 45.8534 27.013 46.1601 27.053 46.4801C27.3463 50.7201 29.613 52.9868 33.853 53.2668C34.1597 53.3068 34.4663 53.3334 34.7997 53.3334H45.1997C50.133 53.3334 52.733 50.9868 52.9863 46.3201C52.9997 46.0668 53.013 45.8001 53.013 45.5334V42.9334C53.013 39.9868 51.053 37.5068 48.3863 36.6934ZM41.7063 44.6668C42.3197 44.8801 43.1463 45.3334 43.1463 46.7468C43.1463 47.9601 42.1997 48.9334 41.0263 48.9334H40.693V49.2268C40.693 49.6134 40.3863 49.9201 39.9997 49.9201C39.613 49.9201 39.3063 49.6134 39.3063 49.2268V48.9334H39.1863C37.9063 48.9334 36.853 47.8534 36.853 46.5201C36.853 46.1334 37.1597 45.8268 37.5463 45.8268C37.933 45.8268 38.2397 46.1334 38.2397 46.5201C38.2397 47.0801 38.6663 47.5468 39.1863 47.5468H39.3063V45.2934L38.293 44.9334C37.6797 44.7201 36.853 44.2668 36.853 42.8534C36.853 41.6401 37.7997 40.6668 38.973 40.6668H39.3063V40.3734C39.3063 39.9868 39.613 39.6801 39.9997 39.6801C40.3863 39.6801 40.693 39.9868 40.693 40.3734V40.6668H40.813C42.093 40.6668 43.1463 41.7468 43.1463 43.0801C43.1463 43.4668 42.8397 43.7734 42.453 43.7734C42.0663 43.7734 41.7597 43.4668 41.7597 43.0801C41.7597 42.5201 41.333 42.0534 40.813 42.0534H40.693V44.3068L41.7063 44.6668Z" fill="#F66B03"/>
<path d="M38.2402 42.8532C38.2402 43.4132 38.4002 43.4932 38.7469 43.6266L39.3069 43.8266V42.0532H38.9736C38.5602 42.0532 38.2402 42.4132 38.2402 42.8532Z" fill="#292D32"/>
</svg>
