<svg width="1728" height="948" viewBox="0 0 1728 948" fill="none" xmlns="http://www.w3.org/2000/svg">
<g opacity="0.6">
<path opacity="0.7" d="M-151.718 327.621L124.704 325.696C152.174 325.505 179.208 318.475 203.381 305.238L409.76 192.223C433.933 178.986 460.967 171.956 488.438 171.765L723.011 170.131C750.481 169.94 777.513 162.911 801.685 149.676L1008.1 36.6472C1032.27 23.4113 1059.31 16.3826 1086.78 16.1913L1321.35 14.5576C1348.82 14.3663 1375.85 7.33842 1400.02 -5.89601L1643.3 -139.1" stroke="white" stroke-width="1.851" stroke-miterlimit="10"/>
<path opacity="0.3" d="M-9.88574 876.17L266.536 874.245C294.007 874.054 321.041 867.024 345.214 853.787L551.593 740.772C575.766 727.535 602.8 720.505 630.271 720.314L864.844 718.68C892.313 718.489 919.346 711.46 943.517 698.224L1149.93 585.196C1174.11 571.96 1201.14 564.931 1228.61 564.74L1463.19 563.106C1490.65 562.915 1517.69 555.887 1541.86 542.653L1785.14 409.449" stroke="white" stroke-width="1.851" stroke-miterlimit="10"/>
<path d="M-230.712 17.2935L45.7094 15.3684C73.1803 15.1771 100.214 8.1476 124.387 -5.0897L330.766 -118.104C354.939 -131.342 381.973 -138.371 409.444 -138.563L644.017 -140.196C671.486 -140.388 698.519 -147.416 722.691 -160.652L929.108 -273.68C953.28 -286.916 980.312 -293.945 1007.78 -294.136L1242.36 -295.77C1269.83 -295.961 1296.86 -302.989 1321.03 -316.224L1564.31 -449.428" stroke="white" stroke-width="1.851" stroke-miterlimit="10"/>
<path opacity="0.7" d="M-72.4497 639.022L203.972 637.097C231.443 636.906 258.477 629.876 282.65 616.639L489.029 503.624C513.202 490.387 540.236 483.357 567.707 483.166L802.28 481.532C829.749 481.341 856.782 474.312 880.954 461.076L1087.37 348.048C1111.54 334.812 1138.58 327.783 1166.04 327.592L1400.62 325.958C1428.09 325.767 1455.12 318.739 1479.29 305.505L1722.57 172.301" stroke="white" stroke-width="1.851" stroke-miterlimit="10"/>
<path d="M69.3804 1187.57L345.802 1185.65C373.273 1185.46 400.307 1178.43 424.48 1165.19L630.859 1052.18C655.032 1038.94 682.066 1031.91 709.537 1031.72L944.11 1030.08C971.579 1029.89 998.612 1022.86 1022.78 1009.63L1229.2 896.599C1253.37 883.363 1280.41 876.335 1307.87 876.143L1542.45 874.51C1569.92 874.318 1596.95 867.291 1621.12 854.056L1864.4 720.852" stroke="white" stroke-width="1.851" stroke-miterlimit="10"/>
<path d="M-111.723 483.23L164.699 481.305C192.17 481.114 219.204 474.085 243.377 460.847L449.756 347.833C473.929 334.595 500.963 327.566 528.434 327.374L763.007 325.741C790.476 325.549 817.509 318.521 841.681 305.285L1048.1 192.257C1072.27 179.021 1099.3 171.992 1126.77 171.801L1361.35 170.167C1388.82 169.976 1415.85 162.948 1440.02 149.713L1683.3 16.5091" stroke="white" stroke-width="1.851" stroke-miterlimit="10"/>
<path d="M30.1094 1031.78L306.531 1029.86C334.002 1029.67 361.036 1022.64 385.209 1009.4L591.588 896.385C615.761 883.148 642.795 876.118 670.266 875.927L904.839 874.293C932.308 874.102 959.341 867.073 983.513 853.838L1189.93 740.809C1214.1 727.573 1241.13 720.545 1268.6 720.353L1503.18 718.72C1530.65 718.528 1557.68 711.501 1581.85 698.266L1825.13 565.062" stroke="white" stroke-width="1.851" stroke-miterlimit="10"/>
<path opacity="0.3" d="M-190.717 172.904L85.705 170.979C113.176 170.788 140.21 163.758 164.383 150.521L370.762 37.5063C394.935 24.2691 421.969 17.2395 449.439 17.0482L684.013 15.4146C711.482 15.2233 738.515 8.19459 762.686 -5.04128L969.104 -118.07C993.275 -131.305 1020.31 -138.334 1047.78 -138.526L1282.36 -140.159C1309.82 -140.35 1336.85 -147.378 1361.03 -160.613L1604.3 -293.817" stroke="white" stroke-width="1.851" stroke-miterlimit="10"/>
<path opacity="0.3" d="M-32.4624 794.635L243.959 792.71C271.43 792.519 298.464 785.489 322.637 772.252L529.016 659.237C553.189 646 580.223 638.97 607.694 638.779L842.267 637.146C869.736 636.954 896.769 629.926 920.941 616.69L1127.36 503.661C1151.53 490.425 1178.56 483.397 1206.03 483.205L1440.61 481.572C1468.08 481.38 1495.11 474.353 1519.28 461.118L1762.56 327.914" stroke="white" stroke-width="1.851" stroke-miterlimit="10"/>
<path d="M109.376 1343.18L385.798 1341.26C413.269 1341.07 440.303 1334.04 464.476 1320.8L670.854 1207.78C695.027 1194.55 722.061 1187.52 749.532 1187.33L984.106 1185.69C1011.57 1185.5 1038.61 1178.47 1062.78 1165.24L1269.2 1052.21C1293.37 1038.97 1320.4 1031.94 1347.87 1031.75L1582.45 1030.12C1609.92 1029.93 1636.95 1022.9 1661.12 1009.67L1904.4 876.461" stroke="white" stroke-width="1.851" stroke-miterlimit="10"/>
<path d="M-133.541 399.57L142.881 397.645C170.352 397.453 197.386 390.424 221.559 377.187L427.937 264.172C452.11 250.935 479.144 243.905 506.615 243.714L741.189 242.08C768.658 241.889 795.69 234.86 819.862 221.624L1026.28 108.596C1050.45 95.36 1077.48 88.3313 1104.95 88.14L1339.53 86.5063C1367 86.315 1394.03 79.2871 1418.2 66.0527L1661.48 -67.1515" stroke="white" stroke-width="1.851" stroke-miterlimit="10"/>
<path opacity="0.3" d="M8.2998 948.12L284.722 946.195C312.193 946.004 339.227 938.974 363.399 925.737L569.778 812.722C593.951 799.485 620.985 792.455 648.456 792.264L883.029 790.63C910.499 790.439 937.531 783.41 961.703 770.175L1168.12 657.146C1192.29 643.91 1219.32 636.882 1246.79 636.69L1481.37 635.057C1508.84 634.865 1535.87 627.837 1560.04 614.603L1803.32 481.399" stroke="white" stroke-width="1.851" stroke-miterlimit="10"/>
<path d="M-212.527 89.2432L63.895 87.3181C91.3659 87.1268 118.4 80.0973 142.573 66.86L348.952 -46.1548C373.125 -59.3921 400.159 -66.4216 427.629 -66.6129L662.203 -68.2465C689.672 -68.4378 716.704 -75.4665 740.876 -88.7024L947.294 -201.731C971.466 -214.967 998.498 -221.995 1025.97 -222.187L1260.55 -223.82C1288.01 -224.012 1315.04 -231.04 1339.22 -244.274L1582.49 -377.478" stroke="white" stroke-width="1.851" stroke-miterlimit="10"/>
<path opacity="0.5" d="M-54.2725 710.972L222.149 709.047C249.62 708.856 276.654 701.826 300.827 688.589L507.206 575.574C531.379 562.337 558.413 555.307 585.884 555.116L820.457 553.482C847.926 553.291 874.959 546.262 899.131 533.027L1105.55 419.998C1129.72 406.762 1156.75 399.734 1184.22 399.542L1418.8 397.909C1446.27 397.717 1473.3 390.689 1497.47 377.455L1740.75 244.251" stroke="white" stroke-width="1.851" stroke-miterlimit="10"/>
<path d="M87.5576 1259.52L363.979 1257.6C391.45 1257.41 418.484 1250.38 442.657 1237.14L649.036 1124.13C673.209 1110.89 700.243 1103.86 727.714 1103.67L962.287 1102.03C989.756 1101.84 1016.79 1094.81 1040.96 1081.58L1247.38 968.549C1271.55 955.314 1298.58 948.285 1326.05 948.094L1560.63 946.46C1588.1 946.269 1615.13 939.241 1639.3 926.006L1882.58 792.802" stroke="white" stroke-width="1.851" stroke-miterlimit="10"/>
<path d="M-251.809 -66.5479L24.6132 -68.4729C52.0841 -68.6642 79.1181 -75.6937 103.291 -88.931L309.67 -201.946C333.843 -215.183 360.877 -222.213 388.348 -222.404L622.921 -224.038C650.39 -224.229 677.423 -231.258 701.595 -244.493L908.012 -357.522C932.184 -370.758 959.216 -377.786 986.686 -377.978L1221.26 -379.611C1248.73 -379.803 1275.76 -386.831 1299.93 -400.065L1543.21 -533.269" stroke="white" stroke-width="1.851" stroke-miterlimit="10"/>
<path d="M-93.5542 555.181L182.868 553.256C210.339 553.064 237.372 546.035 261.545 532.798L467.924 419.783C492.097 406.545 519.131 399.516 546.602 399.325L781.175 397.691C808.645 397.5 835.677 390.471 859.849 377.235L1066.27 264.207C1090.44 250.971 1117.47 243.942 1144.94 243.751L1379.52 242.117C1406.99 241.926 1434.02 234.898 1458.19 221.664L1701.47 88.4593" stroke="white" stroke-width="1.851" stroke-miterlimit="10"/>
<path d="M48.2866 1103.73L324.708 1101.81C352.179 1101.62 379.213 1094.59 403.386 1081.35L609.765 968.334C633.938 955.097 660.972 948.067 688.443 947.876L923.016 946.242C950.485 946.051 977.518 939.022 1001.69 925.786L1208.11 812.758C1232.28 799.522 1259.31 792.493 1286.78 792.302L1521.36 790.668C1548.83 790.477 1575.86 783.449 1600.03 770.215L1843.31 637.011" stroke="white" stroke-width="1.851" stroke-miterlimit="10"/>
<path opacity="0.3" d="M-172.54 244.854L103.882 242.928C131.353 242.737 158.387 235.708 182.56 222.47L388.939 109.456C413.112 96.2183 440.146 89.1887 467.617 88.9974L702.19 87.3638C729.659 87.1725 756.692 80.1438 780.864 66.9079L987.281 -46.1205C1011.45 -59.3564 1038.49 -66.385 1065.95 -66.5763L1300.53 -68.21C1328 -68.4013 1355.03 -75.4292 1379.2 -88.6636L1622.48 -221.868" stroke="white" stroke-width="1.851" stroke-miterlimit="10"/>
<path d="M127.553 1415.14L403.975 1413.21C431.446 1413.02 458.48 1405.99 482.653 1392.75L689.032 1279.74C713.205 1266.5 740.239 1259.47 767.71 1259.28L1002.28 1257.65C1029.75 1257.45 1056.78 1250.43 1080.96 1237.19L1287.37 1124.16C1311.55 1110.93 1338.58 1103.9 1366.05 1103.71L1600.63 1102.07C1628.09 1101.88 1655.12 1094.85 1679.3 1081.62L1922.57 948.414" stroke="white" stroke-width="1.851" stroke-miterlimit="10"/>
</g>
</svg>
