<svg width="80" height="80" viewBox="0 0 80 80" fill="none" xmlns="http://www.w3.org/2000/svg">
<rect width="80" height="80" rx="40" fill="#FEF0E6"/>
<path d="M53.3332 34.0667C53.3332 34.9467 52.6132 35.6667 51.7332 35.6667H28.2665C27.3865 35.6667 26.6665 34.9467 26.6665 34.0667V34.0533C26.6665 31 29.1332 28.5333 32.1865 28.5333H47.7998C50.8532 28.5333 53.3332 31.0133 53.3332 34.0667Z" fill="#F66B03"/>
<path d="M26.6665 39.2666V45.9466C26.6665 49 29.1332 51.4666 32.1865 51.4666H47.7998C50.8532 51.4666 53.3332 48.9866 53.3332 45.9333V39.2666C53.3332 38.3866 52.6132 37.6666 51.7332 37.6666H28.2665C27.3865 37.6666 26.6665 38.3866 26.6665 39.2666ZM34.6665 47H31.9998C31.4532 47 30.9998 46.5466 30.9998 46C30.9998 45.4533 31.4532 45 31.9998 45H34.6665C35.2132 45 35.6665 45.4533 35.6665 46C35.6665 46.5466 35.2132 47 34.6665 47ZM43.3332 47H37.9998C37.4532 47 36.9998 46.5466 36.9998 46C36.9998 45.4533 37.4532 45 37.9998 45H43.3332C43.8798 45 44.3332 45.4533 44.3332 46C44.3332 46.5466 43.8798 47 43.3332 47Z" fill="#F66B03"/>
</svg>
