<svg width="80" height="80" viewBox="0 0 80 80" fill="none" xmlns="http://www.w3.org/2000/svg">
<rect width="80" height="80" rx="40" fill="#FEF0E6"/>
<path d="M45.0398 26.6667H34.9598C29.9198 26.6667 28.6665 28.0134 28.6665 33.3867V48.4C28.6665 51.9467 30.6132 52.7867 32.9732 50.2534L32.9865 50.24C34.0798 49.08 35.7465 49.1734 36.6932 50.44L38.0398 52.24C39.1198 53.6667 40.8665 53.6667 41.9465 52.24L43.2932 50.44C44.2532 49.16 45.9198 49.0667 47.0132 50.24C49.3865 52.7734 51.3198 51.9334 51.3198 48.3867V33.3867C51.3332 28.0134 50.0798 26.6667 45.0398 26.6667ZM43.9998 39.6667H35.9998C35.4532 39.6667 34.9998 39.2134 34.9998 38.6667C34.9998 38.12 35.4532 37.6667 35.9998 37.6667H43.9998C44.5465 37.6667 44.9998 38.12 44.9998 38.6667C44.9998 39.2134 44.5465 39.6667 43.9998 39.6667ZM45.3332 34.3334H34.6665C34.1198 34.3334 33.6665 33.88 33.6665 33.3334C33.6665 32.7867 34.1198 32.3334 34.6665 32.3334H45.3332C45.8798 32.3334 46.3332 32.7867 46.3332 33.3334C46.3332 33.88 45.8798 34.3334 45.3332 34.3334Z" fill="#F66B03"/>
</svg>
