<svg width="80" height="80" viewBox="0 0 80 80" fill="none" xmlns="http://www.w3.org/2000/svg">
<rect width="80" height="80" rx="40" fill="#FEF0E6"/>
<path d="M50.6267 35.6667H46.7067C45.0133 35.6667 44 34.6534 44 32.96V29.04C44 27.3467 45.0133 26.3334 46.7067 26.3334H50.6267C52.32 26.3334 53.3333 27.3467 53.3333 29.04V32.96C53.3333 34.6534 52.32 35.6667 50.6267 35.6667ZM50.92 31.2534C50.76 31.0934 50.5467 31.0134 50.3333 31.0134C50.12 31.0134 49.9067 31.0934 49.7467 31.2534L49.5067 31.4934V28.5067C49.5067 28.04 49.1333 27.6667 48.6667 27.6667C48.2 27.6667 47.8267 28.04 47.8267 28.5067V31.4934L47.5867 31.2534C47.2667 30.9334 46.7333 30.9334 46.4133 31.2534C46.0933 31.5734 46.0933 32.1067 46.4133 32.4267L48.08 34.0934C48.1467 34.16 48.24 34.2134 48.3333 34.2534C48.36 34.2667 48.3867 34.2667 48.4133 34.28C48.48 34.3067 48.5467 34.32 48.6267 34.32C48.6533 34.32 48.68 34.32 48.7067 34.32C48.8 34.32 48.88 34.3067 48.9733 34.2667C48.9867 34.2667 48.9867 34.2667 49 34.2667C49.0933 34.2267 49.1733 34.1734 49.24 34.1067C49.2533 34.0934 49.2533 34.0934 49.2667 34.0934L50.9333 32.4267C51.2533 32.1067 51.2533 31.5734 50.92 31.2534Z" fill="#F66B03"/>
<path d="M26.6665 39.28V45.9466C26.6665 49 29.1332 51.4666 32.1865 51.4666H47.7998C50.8532 51.4666 53.3332 48.9866 53.3332 45.9333V39.28C53.3332 38.3866 52.6132 37.6666 51.7198 37.6666H28.2798C27.3865 37.6666 26.6665 38.3866 26.6665 39.28ZM34.6665 47H31.9998C31.4532 47 30.9998 46.5466 30.9998 46C30.9998 45.4533 31.4532 45 31.9998 45H34.6665C35.2132 45 35.6665 45.4533 35.6665 46C35.6665 46.5466 35.2132 47 34.6665 47ZM43.3332 47H37.9998C37.4532 47 36.9998 46.5466 36.9998 46C36.9998 45.4533 37.4532 45 37.9998 45H43.3332C43.8798 45 44.3332 45.4533 44.3332 46C44.3332 46.5466 43.8798 47 43.3332 47Z" fill="#F66B03"/>
<path d="M41.9998 30.1467V34.0533C41.9998 34.9467 41.2798 35.6667 40.3865 35.6667H28.2798C27.3732 35.6667 26.6665 34.92 26.6665 34.0267C26.6798 32.52 27.2798 31.1467 28.2798 30.1467C29.2798 29.1467 30.6665 28.5333 32.1865 28.5333H40.3865C41.2798 28.5333 41.9998 29.2533 41.9998 30.1467Z" fill="#F66B03"/>
</svg>
