<svg width="80" height="80" viewBox="0 0 80 80" fill="none" xmlns="http://www.w3.org/2000/svg">
<rect width="80" height="80" rx="40" fill="#FCE9D2"/>
<path d="M48 26.6667H32C29.7867 26.6667 28 28.4401 28 30.6267V45.1734C28 47.3601 29.7867 49.1334 32 49.1334H33.0133C34.08 49.1334 35.0933 49.5467 35.84 50.2934L38.12 52.5467C39.16 53.5734 40.8533 53.5734 41.8933 52.5467L44.1733 50.2934C44.92 49.5467 45.9467 49.1334 47 49.1334H48C50.2133 49.1334 52 47.3601 52 45.1734V30.6267C52 28.4401 50.2133 26.6667 48 26.6667ZM37.84 41.3467C38.3867 41.3467 38.84 41.8001 38.84 42.3467C38.84 42.8934 38.3867 43.3467 37.84 43.3467H34.2667C33.68 43.3467 33.1333 43.0667 32.7867 42.5867C32.4533 42.1334 32.3733 41.5734 32.5333 41.0401C33 39.6134 34.1467 38.8401 35.16 38.1467C36.2267 37.4267 36.8267 36.9734 36.8267 36.2001C36.8267 35.5067 36.2667 34.9467 35.5733 34.9467C34.88 34.9467 34.3333 35.5201 34.3333 36.2134C34.3333 36.7601 33.88 37.2134 33.3333 37.2134C32.7867 37.2134 32.3333 36.7601 32.3333 36.2134C32.3333 34.4267 33.7867 32.9601 35.5867 32.9601C37.3867 32.9601 38.84 34.4134 38.84 36.2134C38.84 38.0934 37.4267 39.0534 36.2933 39.8267C35.5867 40.3067 34.92 40.7601 34.5867 41.3601H37.84V41.3467ZM46.6667 41.4401H46.3867V42.3601C46.3867 42.9067 45.9333 43.3601 45.3867 43.3601C44.84 43.3601 44.3867 42.9067 44.3867 42.3601V41.4401H41.7733C41.7733 41.4401 41.7733 41.4401 41.76 41.4401C41.1067 41.4401 40.5067 41.0934 40.1733 40.5334C39.84 39.9601 39.84 39.2534 40.1733 38.6934C41.08 37.1334 42.1333 35.3601 43.0933 33.8134C43.52 33.1334 44.3333 32.8267 45.0933 33.0401C45.8533 33.2667 46.3867 33.9601 46.3733 34.7601V39.4534H46.6667C47.2133 39.4534 47.6667 39.9067 47.6667 40.4534C47.6667 41.0001 47.2133 41.4401 46.6667 41.4401Z" fill="#F66B03"/>
<path d="M44.387 39.44V35.52C43.6004 36.8 42.787 38.1734 42.0537 39.4267H44.387V39.44Z" fill="#F66B03"/>
</svg>
