<svg width="80" height="80" viewBox="0 0 80 80" fill="none" xmlns="http://www.w3.org/2000/svg">
<rect width="80" height="80" rx="40" fill="#FEF0E6"/>
<path d="M45.6535 26.6666H34.3468C30.6668 26.6666 29.3335 28 29.3335 31.7466V48.2533C29.3335 52 30.6668 53.3333 34.3468 53.3333H45.6402C49.3335 53.3333 50.6668 52 50.6668 48.2533V31.7466C50.6668 28 49.3335 26.6666 45.6535 26.6666ZM40.0002 49.7333C38.7202 49.7333 37.6668 48.68 37.6668 47.4C37.6668 46.12 38.7202 45.0666 40.0002 45.0666C41.2802 45.0666 42.3335 46.12 42.3335 47.4C42.3335 48.68 41.2802 49.7333 40.0002 49.7333ZM42.6668 32.3333H37.3335C36.7868 32.3333 36.3335 31.88 36.3335 31.3333C36.3335 30.7866 36.7868 30.3333 37.3335 30.3333H42.6668C43.2135 30.3333 43.6668 30.7866 43.6668 31.3333C43.6668 31.88 43.2135 32.3333 42.6668 32.3333Z" fill="#F66B03"/>
</svg>
