<svg width="80" height="80" viewBox="0 0 80 80" fill="none" xmlns="http://www.w3.org/2000/svg">
<rect width="80" height="80" rx="40" fill="#FCE9D2"/>
<path d="M39.9203 26.9468L36.7069 34.4268H33.4936C32.9603 34.4268 32.4403 34.4668 31.9336 34.5734L33.2669 31.3734L33.3203 31.2534L33.4003 31.0401C33.4403 30.9468 33.4669 30.8668 33.5069 30.8001C35.0536 27.2134 36.7869 26.0934 39.9203 26.9468Z" fill="#F66B03"/>
<path d="M48.9735 34.7868L48.9468 34.7734C48.1468 34.5468 47.3335 34.4268 46.5068 34.4268H38.1602L41.1602 27.4534L41.2002 27.3601C41.3868 27.4268 41.5868 27.5201 41.7868 27.5868L44.7335 28.8268C46.3735 29.5068 47.5202 30.2134 48.2268 31.0668C48.3468 31.2268 48.4535 31.3734 48.5602 31.5468C48.6802 31.7334 48.7735 31.9201 48.8268 32.1201C48.8802 32.2401 48.9202 32.3468 48.9468 32.4668C49.1468 33.1468 49.1602 33.9201 48.9735 34.7868Z" fill="#F66B03"/>
<path d="M48.3863 36.6934C47.7863 36.5201 47.1597 36.4268 46.5063 36.4268H33.493C32.5863 36.4268 31.733 36.6001 30.933 36.9468C28.613 37.9468 26.9863 40.2534 26.9863 42.9334V45.5334C26.9863 45.8534 27.013 46.1601 27.053 46.4801C27.3463 50.7201 29.613 52.9868 33.853 53.2668C34.1597 53.3068 34.4663 53.3334 34.7997 53.3334H45.1997C50.133 53.3334 52.733 50.9868 52.9863 46.3201C52.9997 46.0668 53.013 45.8001 53.013 45.5334V42.9334C53.013 39.9868 51.053 37.5068 48.3863 36.6934ZM43.333 45.5868H40.9997V48.0001C40.9997 48.5468 40.5463 49.0001 39.9997 49.0001C39.453 49.0001 38.9997 48.5468 38.9997 48.0001V45.5868H36.6663C36.1197 45.5868 35.6663 45.1468 35.6663 44.5868C35.6663 44.0401 36.1197 43.5868 36.6663 43.5868H38.9997V41.3334C38.9997 40.7868 39.453 40.3334 39.9997 40.3334C40.5463 40.3334 40.9997 40.7868 40.9997 41.3334V43.5868H43.333C43.8797 43.5868 44.333 44.0401 44.333 44.5868C44.333 45.1468 43.8797 45.5868 43.333 45.5868Z" fill="#F66B03"/>
</svg>
