<svg width="24" height="24" viewBox="0 0 24 24" fill="none" xmlns="http://www.w3.org/2000/svg">
<path d="M19.0902 12.59C18.9302 12.59 18.7702 12.54 18.6302 12.43C14.6002 9.31999 9.39018 9.31999 5.36018 12.43C5.03018 12.68 4.56018 12.62 4.31018 12.3C4.06018 11.97 4.12018 11.5 4.44018 11.25C9.03018 7.69999 14.9602 7.69999 19.5402 11.25C19.8702 11.5 19.9302 11.97 19.6702 12.3C19.5402 12.49 19.3202 12.59 19.0902 12.59Z" fill="#292D32"/>
<path d="M22 9.10999C21.84 9.10999 21.68 9.05999 21.54 8.94999C15.74 4.46999 8.25001 4.46999 2.46001 8.94999C2.13001 9.19999 1.66001 9.13999 1.41001 8.81999C1.15001 8.49999 1.21001 8.01999 1.54001 7.76999C7.89001 2.85999 16.1 2.85999 22.46 7.76999C22.79 8.01999 22.85 8.48999 22.59 8.81999C22.45 9.00999 22.22 9.10999 22 9.10999Z" fill="#292D32"/>
<path d="M17.2101 16.24C17.0501 16.24 16.8901 16.19 16.7501 16.08C13.8701 13.85 10.1401 13.85 7.25007 16.08C6.92007 16.33 6.45007 16.27 6.20007 15.95C5.95007 15.62 6.01007 15.15 6.33007 14.9C9.77007 12.24 14.2201 12.24 17.6601 14.9C17.9901 15.15 18.0501 15.62 17.7901 15.95C17.6501 16.14 17.4301 16.24 17.2101 16.24Z" fill="#292D32"/>
<path d="M14.5999 19.9C14.4399 19.9 14.2799 19.85 14.1399 19.74C12.8399 18.73 11.1499 18.73 9.84992 19.74C9.51992 19.99 9.04992 19.93 8.79992 19.61C8.54992 19.28 8.60992 18.81 8.92992 18.56C10.7899 17.12 13.1899 17.12 15.0499 18.56C15.3799 18.81 15.4399 19.28 15.1799 19.61C15.0499 19.79 14.8299 19.9 14.5999 19.9Z" fill="#292D32"/>
</svg>
