<svg width="80" height="80" viewBox="0 0 80 80" fill="none" xmlns="http://www.w3.org/2000/svg">
<rect width="80" height="80" rx="40" fill="#FDE1CD"/>
<path d="M42.5 43.2303C42.5001 43.2301 42.5002 43.2299 42.5003 43.2297L44.2585 43.1997L44.2721 43.1995L44.2856 43.1985C44.6401 43.1732 44.9507 42.9193 45.0289 42.5545L45.0305 42.5472L45.0318 42.5399L45.3818 40.6299L45.3819 40.6299L45.3832 40.622C45.4639 40.1377 45.0895 39.6898 44.59 39.6898V39.6897L44.583 39.6898L42.4586 39.7197C42.4558 39.7196 42.4547 39.7191 42.4545 39.719L42.4544 39.719C42.4539 39.7188 42.4532 39.7184 42.4524 39.7176C42.4515 39.7167 42.4508 39.7157 42.4504 39.7148C42.4502 39.7143 42.4499 39.7137 42.4498 39.7127L42.4133 37.4764L44.6151 37.4397C45.0587 37.4371 45.41 37.0843 45.41 36.6398H45.4101L45.4099 36.6314L45.37 34.2347C45.3673 33.7909 45.0145 33.4398 44.57 33.4398V33.4397L44.5626 33.4398L41.8626 33.4798L41.861 33.4798C39.9267 33.5148 38.3851 35.1009 38.4201 37.0388L38.4201 37.0388L38.4701 39.7888L38.47 39.7888L38.47 39.7891C38.4685 39.7895 38.4667 39.7898 38.4644 39.79L37.2749 39.8098C36.8312 39.8124 36.48 40.1653 36.48 40.6097H36.4799L36.4801 40.6176L36.51 42.5146C36.5126 42.9584 36.8655 43.3098 37.31 43.3098V43.3098L37.3183 43.3097L38.5116 43.2898C38.5143 43.2899 38.5153 43.2904 38.5155 43.2905L38.5156 43.2905C38.5161 43.2907 38.5168 43.2911 38.5176 43.2919C38.5185 43.2928 38.5192 43.2938 38.5196 43.2947C38.5198 43.2952 38.5201 43.2958 38.5202 43.2967L38.61 48.9877L38.6101 48.9887C38.6151 49.2703 38.3891 49.4998 38.11 49.4998H35.81C34.0894 49.4998 32.7763 48.9888 31.8938 48.1052C31.0111 47.2214 30.5 45.9057 30.5 44.1797V35.8098C30.5 34.0892 31.0109 32.7759 31.8936 31.8933C32.7762 31.0107 34.0894 30.4998 35.81 30.4998H44.19C45.9106 30.4998 47.2238 31.0107 48.1064 31.8933C48.9891 32.7759 49.5 34.0892 49.5 35.8098V44.1898C49.5 45.9103 48.9891 47.2236 48.1064 48.1062C47.2238 48.9888 45.9106 49.4998 44.19 49.4998H43C42.7261 49.4998 42.5 49.2736 42.5 48.9998V43.2304C42.5 43.2303 42.5 43.2303 42.5 43.2303Z" fill="#F66B03" stroke="#F66B03"/>
</svg>
