<svg width="24" height="25" viewBox="0 0 24 25" fill="none" xmlns="http://www.w3.org/2000/svg">
<path d="M14 9.90895V12.8089H16.6C16.8 12.8089 16.9 13.0089 16.9 13.2089L16.5 15.1089C16.5 15.2089 16.3 15.3089 16.2 15.3089H14V22.6089H11V15.4089H9.3C9.1 15.4089 9 15.3089 9 15.1089V13.2089C9 13.0089 9.1 12.9089 9.3 12.9089H11V9.60895C11 7.90895 12.3 6.60895 14 6.60895H16.7C16.9 6.60895 17 6.70895 17 6.90895V9.30895C17 9.50895 16.9 9.60895 16.7 9.60895H14.3C14.1 9.60895 14 9.70895 14 9.90895Z" stroke="white" stroke-width="1.5" stroke-miterlimit="10" stroke-linecap="round"/>
<path d="M15 22.6089H9C4 22.6089 2 20.6089 2 15.6089V9.60895C2 4.60895 4 2.60895 9 2.60895H15C20 2.60895 22 4.60895 22 9.60895V15.6089C22 20.6089 20 22.6089 15 22.6089Z" stroke="white" stroke-width="1.5" stroke-linecap="round" stroke-linejoin="round"/>
</svg>
