<svg width="80" height="81" viewBox="0 0 80 81" fill="none" xmlns="http://www.w3.org/2000/svg">
<path d="M42.5 43.7042C42.5001 43.704 42.5002 43.7038 42.5003 43.7035L44.2585 43.6736L44.2721 43.6733L44.2856 43.6724C44.6401 43.6471 44.9507 43.3932 45.0289 43.0284L45.0305 43.0211L45.0318 43.0138L45.3818 41.1038L45.3819 41.1038L45.3832 41.0958C45.4639 40.6116 45.0895 40.1636 44.59 40.1636V40.1636L44.583 40.1637L42.4586 40.1936C42.4558 40.1935 42.4547 40.193 42.4545 40.1929L42.4544 40.1929C42.4539 40.1927 42.4532 40.1923 42.4524 40.1915C42.4515 40.1906 42.4508 40.1896 42.4504 40.1887C42.4502 40.1882 42.4499 40.1876 42.4498 40.1866L42.4133 37.9503L44.6151 37.9136C45.0587 37.9109 45.41 37.5582 45.41 37.1136H45.4101L45.4099 37.1053L45.37 34.7086C45.3673 34.2648 45.0145 33.9136 44.57 33.9136V33.9136L44.5626 33.9137L41.8626 33.9537L41.861 33.9537C39.9267 33.9887 38.3851 35.5747 38.4201 37.5127L38.4201 37.5127L38.4701 40.2627L38.47 40.2627L38.47 40.263C38.4685 40.2634 38.4667 40.2637 38.4644 40.2638L37.2749 40.2836C36.8312 40.2863 36.48 40.6392 36.48 41.0836H36.4799L36.4801 41.0915L36.51 42.9884C36.5126 43.4323 36.8655 43.7836 37.31 43.7836V43.7837L37.3183 43.7836L38.5116 43.7637C38.5143 43.7638 38.5153 43.7643 38.5155 43.7644L38.5156 43.7644C38.5161 43.7646 38.5168 43.765 38.5176 43.7658C38.5185 43.7667 38.5192 43.7677 38.5196 43.7686C38.5198 43.7691 38.5201 43.7697 38.5202 43.7706L38.61 49.4615L38.6101 49.4626C38.6151 49.7442 38.3891 49.9736 38.11 49.9736H35.81C34.0894 49.9736 32.7763 49.4627 31.8938 48.579C31.0111 47.6953 30.5 46.3795 30.5 44.6536V36.2836C30.5 34.5631 31.0109 33.2498 31.8936 32.3672C32.7762 31.4846 34.0894 30.9736 35.81 30.9736H44.19C45.9106 30.9736 47.2238 31.4846 48.1064 32.3672C48.9891 33.2498 49.5 34.5631 49.5 36.2836V44.6636C49.5 46.3842 48.9891 47.6975 48.1064 48.5801C47.2238 49.4627 45.9106 49.9736 44.19 49.9736H43C42.7261 49.9736 42.5 49.7475 42.5 49.4736V43.7042C42.5 43.7042 42.5 43.7042 42.5 43.7042Z" fill="white" stroke="white"/>
<rect x="1" y="1.47412" width="78" height="78" rx="39" stroke="#FAFAFA" stroke-width="2"/>
</svg>
