<svg width="24" height="25" viewBox="0 0 24 25" fill="none" xmlns="http://www.w3.org/2000/svg">
<path d="M9 22.218H15C20 22.218 22 20.218 22 15.218V9.21799C22 4.21799 20 2.21799 15 2.21799H9C4 2.21799 2 4.21799 2 9.21799V15.218C2 20.218 4 22.218 9 22.218Z" stroke="white" stroke-width="1.5" stroke-linecap="round" stroke-linejoin="round"/>
<path d="M12 15.718C13.933 15.718 15.5 14.151 15.5 12.218C15.5 10.285 13.933 8.71799 12 8.71799C10.067 8.71799 8.5 10.285 8.5 12.218C8.5 14.151 10.067 15.718 12 15.718Z" stroke="white" stroke-width="1.5" stroke-linecap="round" stroke-linejoin="round"/>
<path d="M17.6361 7.21799H17.6477" stroke="white" stroke-width="2" stroke-linecap="round" stroke-linejoin="round"/>
</svg>
