<svg width="80" height="81" viewBox="0 0 80 81" fill="none" xmlns="http://www.w3.org/2000/svg">
<path d="M49.49 36.2823V36.2836V44.6636C49.49 46.3842 48.9791 47.6975 48.0964 48.5801C47.2138 49.4627 45.9006 49.9736 44.18 49.9736H35.81C34.0894 49.9736 32.7763 49.4627 31.8938 48.5791C31.0111 47.6953 30.5 46.3796 30.5 44.6536V36.2836C30.5 34.5631 31.0109 33.2498 31.8936 32.3672C32.7762 31.4846 34.0894 30.9736 35.81 30.9736H44.19C45.9107 30.9736 47.2237 31.4846 48.105 32.367C48.9861 33.2492 49.4947 34.562 49.49 36.2823ZM46.0445 36.0553L46.064 36.0377L46.0816 36.0181C46.2081 35.8776 46.3091 35.7199 46.3815 35.5459C46.4528 35.3748 46.5 35.1795 46.5 34.9736C46.5 34.7703 46.454 34.5773 46.3842 34.4076C46.3063 34.2079 46.198 34.0585 46.0816 33.9291L46.0543 33.8987L46.0223 33.8732C46.0124 33.8653 46.0066 33.8602 45.9967 33.8515C45.9884 33.8443 45.9774 33.8347 45.9588 33.8189C45.9322 33.7962 45.8857 33.7575 45.8289 33.722C45.7491 33.6696 45.6635 33.6249 45.5721 33.5912C45.4824 33.5496 45.3867 33.5186 45.2794 33.5015C44.7908 33.4011 44.2774 33.5691 43.9364 33.9101L43.9271 33.9194L43.9184 33.9291C43.802 34.0585 43.6937 34.2079 43.6158 34.4076C43.546 34.5773 43.5 34.7703 43.5 34.9736C43.5 35.1795 43.5472 35.3748 43.6185 35.5459C43.6909 35.7199 43.7919 35.8776 43.9184 36.0181L43.9271 36.0279L43.9364 36.0372C44.2237 36.3244 44.6024 36.4736 45 36.4736C45.2059 36.4736 45.4012 36.4265 45.5723 36.3552C45.7462 36.2827 45.904 36.1817 46.0445 36.0553ZM35.62 40.4736C35.62 42.8898 37.5839 44.8536 40 44.8536C42.4161 44.8536 44.38 42.8898 44.38 40.4736C44.38 38.0575 42.4161 36.0936 40 36.0936C37.5839 36.0936 35.62 38.0575 35.62 40.4736Z" fill="white" stroke="white"/>
<rect x="1" y="1.47412" width="78" height="78" rx="39" stroke="#FAFAFA" stroke-width="2"/>
</svg>
