<svg width="80" height="80" viewBox="0 0 80 80" fill="none" xmlns="http://www.w3.org/2000/svg">
<rect width="80" height="80" rx="40" fill="#FDE1CD"/>
<path d="M49.49 35.8089V35.8102V44.1902C49.49 45.9108 48.9791 47.2241 48.0964 48.1067C47.2138 48.9893 45.9006 49.5002 44.18 49.5002H35.81C34.0894 49.5002 32.7763 48.9893 31.8938 48.1057C31.0111 47.2219 30.5 45.9062 30.5 44.1802V35.8102C30.5 34.0897 31.0109 32.7764 31.8936 31.8938C32.7762 31.0112 34.0894 30.5002 35.81 30.5002H44.19C45.9107 30.5002 47.2237 31.0112 48.105 31.8936C48.9861 32.7758 49.4947 34.0886 49.49 35.8089ZM46.0445 35.5819L46.064 35.5643L46.0816 35.5447C46.2081 35.4042 46.3091 35.2465 46.3815 35.0726C46.4528 34.9014 46.5 34.7061 46.5 34.5002C46.5 34.2969 46.454 34.1039 46.3842 33.9342C46.3063 33.7345 46.198 33.5851 46.0816 33.4558L46.0543 33.4254L46.0223 33.3998C46.0124 33.3919 46.0066 33.3868 45.9967 33.3781C45.9884 33.3709 45.9774 33.3613 45.9588 33.3455C45.9322 33.3229 45.8857 33.2841 45.8289 33.2486C45.7491 33.1963 45.6635 33.1515 45.5721 33.1178C45.4824 33.0762 45.3867 33.0452 45.2794 33.0281C44.7908 32.9277 44.2774 33.0958 43.9364 33.4367L43.9271 33.446L43.9184 33.4558C43.802 33.5851 43.6937 33.7345 43.6158 33.9343C43.546 34.1039 43.5 34.2969 43.5 34.5002C43.5 34.7061 43.5472 34.9014 43.6185 35.0726C43.6909 35.2465 43.7919 35.4042 43.9184 35.5447L43.9271 35.5545L43.9364 35.5638C44.2237 35.851 44.6024 36.0002 45 36.0002C45.2059 36.0002 45.4012 35.9531 45.5723 35.8818C45.7462 35.8093 45.904 35.7083 46.0445 35.5819ZM35.62 40.0002C35.62 42.4164 37.5839 44.3802 40 44.3802C42.4161 44.3802 44.38 42.4164 44.38 40.0002C44.38 37.5841 42.4161 35.6202 40 35.6202C37.5839 35.6202 35.62 37.5841 35.62 40.0002Z" fill="#F66B03" stroke="#F66B03"/>
</svg>
