<svg width="80" height="81" viewBox="0 0 80 81" fill="none" xmlns="http://www.w3.org/2000/svg">
<g clip-path="url(#clip0_1481_12612)">
<path d="M49.1303 28.522H30.3477C29.1947 28.522 28.2607 29.4559 28.2607 30.6089V49.3915C28.2607 50.5446 29.1947 51.4785 30.3477 51.4785H49.1303C50.2833 51.4785 51.2173 50.5446 51.2173 49.3915V30.6089C51.2173 29.4559 50.2833 28.522 49.1303 28.522ZM35.5171 47.3046H32.4388V37.3999H35.5171V47.3046ZM33.9467 35.9839C32.9543 35.9839 32.1519 35.1794 32.1519 34.1891C32.1519 33.1988 32.9554 32.3954 33.9467 32.3954C34.9359 32.3954 35.7404 33.1999 35.7404 34.1891C35.7404 35.1794 34.9359 35.9839 33.9467 35.9839ZM47.0475 47.3046H43.9714V42.4879C43.9714 41.339 43.9505 39.8615 42.3717 39.8615C40.77 39.8615 40.5237 41.1126 40.5237 42.4044V47.3046H37.4475V37.3999H40.4006V38.7533H40.4423C40.8534 37.9748 41.8573 37.1536 43.3547 37.1536C46.4715 37.1536 47.0475 39.2051 47.0475 41.8722V47.3046Z" fill="white"/>
</g>
<rect x="1" y="1.47412" width="78" height="78" rx="39" stroke="#FAFAFA" stroke-width="2"/>
<defs>
<clipPath id="clip0_1481_12612">
<rect width="24" height="22.9565" fill="white" transform="translate(28 28.522)"/>
</clipPath>
</defs>
</svg>
