<svg width="24" height="25" viewBox="0 0 24 25" fill="none" xmlns="http://www.w3.org/2000/svg">
<path d="M9 22.827H15C20 22.827 22 20.827 22 15.827V9.82703C22 4.82703 20 2.82703 15 2.82703H9C4 2.82703 2 4.82703 2 9.82703V15.827C2 20.827 4 22.827 9 22.827Z" stroke="white" stroke-width="1.5" stroke-linecap="round" stroke-linejoin="round"/>
<path d="M14.7165 13.5602L14.7166 13.5604C14.8549 13.8901 14.86 14.3397 14.86 14.7548V18.338C14.86 18.4868 14.9797 18.6084 15.1292 18.6084H17.5307C17.6802 18.6084 17.7999 18.4868 17.7999 18.338V14.2978C17.7999 13.2719 17.6818 12.3394 17.2252 11.6496C16.7553 10.9395 15.9519 10.5204 14.6468 10.5204C14.073 10.5204 13.5781 10.6547 13.1782 10.8655C12.9599 10.9795 12.7702 11.1135 12.6082 11.2604V10.7908C12.6082 10.642 12.4885 10.5204 12.339 10.5204H10.1347V10.5131H10.0347C9.8852 10.5131 9.76551 10.6347 9.76551 10.7836V18.3343C9.76551 18.4832 9.8852 18.6048 10.0347 18.6048H12.4362C12.5857 18.6048 12.7054 18.4832 12.7054 18.3343V14.6895C12.7054 14.2372 12.7496 13.8155 12.9221 13.5215L12.9221 13.5215C13.0016 13.3858 13.1106 13.2747 13.2619 13.1967C13.4141 13.1182 13.6145 13.0705 13.8799 13.0705C14.1298 13.0705 14.3085 13.1251 14.4381 13.21C14.5674 13.2948 14.6559 13.415 14.7165 13.5602ZM12.4541 13.2539L12.4541 13.2539C12.2168 13.6625 12.1633 14.1858 12.1633 14.6968V18.0711H10.3039V11.0613H12.0661V11.9804C12.0661 12.1292 12.1858 12.2508 12.3354 12.2508H12.3678C12.4718 12.2508 12.5575 12.1923 12.6024 12.1131L12.6027 12.1125C12.7549 11.84 13.0284 11.5526 13.4221 11.3473L13.4227 11.347C13.7498 11.1736 14.1585 11.0613 14.6432 11.0613C15.7738 11.0613 16.413 11.405 16.7739 11.952C17.1489 12.5203 17.2579 13.3425 17.2579 14.3015V18.0711H15.3948V14.7584C15.3948 14.3201 15.3926 13.7915 15.2107 13.3563C15.1133 13.1216 14.9675 12.9137 14.7478 12.7652C14.528 12.6167 14.2428 12.5332 13.8763 12.5332C13.516 12.5332 13.2235 12.6028 12.9882 12.7297C12.7523 12.8568 12.5793 13.0385 12.4541 13.2539ZM8.1939 9.77327C8.47091 9.49423 8.64057 9.1138 8.64057 8.69097C8.64057 8.26796 8.46718 7.88395 8.1939 7.60867C7.91687 7.32962 7.53887 7.15842 7.11843 7.15842C6.69781 7.15842 6.31625 7.33338 6.04296 7.60867C5.76595 7.88771 5.59629 8.26814 5.59629 8.69097C5.59629 9.11398 5.76968 9.49799 6.04296 9.77327C6.31999 10.0523 6.69799 10.2235 7.11843 10.2235C7.53905 10.2235 7.92061 10.0486 8.1939 9.77327ZM8.10214 8.69097C8.10214 8.96438 7.99103 9.21139 7.81434 9.38937C7.63766 9.56735 7.39278 9.67897 7.12203 9.67897C6.85128 9.67897 6.6064 9.56735 6.42972 9.38937C6.25303 9.21139 6.14192 8.96438 6.14192 8.69097C6.14192 8.41755 6.25303 8.17054 6.42972 7.99256C6.6064 7.81459 6.85128 7.70296 7.12203 7.70296C7.39278 7.70296 7.63766 7.81459 7.81434 7.99256C7.99103 8.17054 8.10214 8.41755 8.10214 8.69097ZM8.37136 10.5167H5.87271C5.72318 10.5167 5.60349 10.6384 5.60349 10.7872V18.338C5.60349 18.4868 5.72318 18.6084 5.87271 18.6084H8.37136C8.52088 18.6084 8.64057 18.4868 8.64057 18.338V10.7872C8.64057 10.6384 8.52088 10.5167 8.37136 10.5167ZM6.14192 18.0675V11.0576H8.10214V18.0675H6.14192Z" fill="white" stroke="white" stroke-width="0.2"/>
</svg>
