<svg width="80" height="80" viewBox="0 0 80 80" fill="none" xmlns="http://www.w3.org/2000/svg">
<rect width="80" height="80" rx="40" fill="#FDE1CD"/>
<path d="M37 50H43C48 50 50 48 50 43V37C50 32 48 30 43 30H37C32 30 30 32 30 37V43C30 48 32 50 37 50Z" fill="#F66B03"/>
<path d="M38.0347 37.7933H40.339C40.4326 37.7933 40.5082 37.8695 40.5082 37.9638V38.6746C40.6954 38.4679 40.933 38.2793 41.2246 38.127C41.6099 37.9239 42.0887 37.7933 42.6468 37.7933C43.9285 37.7933 44.6954 38.2032 45.1418 38.8777C45.5811 39.5414 45.6999 40.4481 45.6999 41.4708V45.5109C45.6999 45.6052 45.6243 45.6814 45.5307 45.6814H43.1292C43.0356 45.6814 42.96 45.6052 42.96 45.5109V41.9278C42.96 41.518 42.9564 41.0465 42.8088 40.6947C42.6756 40.3755 42.4092 40.1434 41.8799 40.1434C41.3255 40.1434 41.0122 40.3429 40.8358 40.6439C40.6486 40.9631 40.6054 41.4092 40.6054 41.8625V45.5073C40.6054 45.6016 40.5298 45.6778 40.4362 45.6778H38.0347C37.9411 45.6778 37.8655 45.6016 37.8655 45.5073V37.9565C37.8655 37.8622 37.9411 37.7861 38.0347 37.7861V37.7933ZM40.1697 38.1342H38.2039V45.3441H40.2633V41.8697C40.2633 41.362 40.3174 40.8615 40.5406 40.4771C40.7746 40.0745 41.1814 39.8062 41.8763 39.8062C42.5784 39.8062 42.9348 40.1253 43.1184 40.5678C43.2912 40.9812 43.2948 41.4889 43.2948 41.9314V45.3441H45.3579V41.4744C45.3579 40.5134 45.2498 39.6647 44.8574 39.0699C44.4722 38.486 43.7953 38.1342 42.6432 38.1342C42.1427 38.1342 41.7179 38.2503 41.3759 38.4316C40.9654 38.6456 40.6774 38.9466 40.5154 39.2368C40.4866 39.2875 40.4326 39.3238 40.3678 39.3238H40.3354C40.2417 39.3238 40.1661 39.2476 40.1661 39.1533V38.1342H40.1697ZM36.5406 35.8639C36.5406 36.2592 36.3822 36.6147 36.1229 36.8758C35.8673 37.1333 35.5109 37.2965 35.1184 37.2965C34.726 37.2965 34.3732 37.1369 34.1139 36.8758C33.8583 36.6183 33.6963 36.2592 33.6963 35.8639C33.6963 35.4686 33.8547 35.1132 34.1139 34.8521C34.3696 34.5946 34.726 34.4314 35.1184 34.4314C35.5109 34.4314 35.8637 34.591 36.1229 34.8521C36.3786 35.1096 36.5406 35.4686 36.5406 35.8639ZM35.8853 36.6328C36.0797 36.437 36.2021 36.165 36.2021 35.8639C36.2021 35.5629 36.0797 35.2909 35.8853 35.0951C35.6909 34.8992 35.4209 34.7759 35.122 34.7759C34.8232 34.7759 34.5532 34.8992 34.3588 35.0951C34.1643 35.2909 34.0419 35.5629 34.0419 35.8639C34.0419 36.165 34.1643 36.437 34.3588 36.6328C34.5532 36.8286 34.8232 36.9519 35.122 36.9519C35.4209 36.9519 35.6909 36.8286 35.8853 36.6328ZM33.8727 37.7897H36.3714C36.465 37.7897 36.5406 37.8659 36.5406 37.9602V45.5109C36.5406 45.6052 36.465 45.6814 36.3714 45.6814H33.8727C33.7791 45.6814 33.7035 45.6052 33.7035 45.5109V37.9602C33.7035 37.8659 33.7791 37.7897 33.8727 37.7897ZM36.2021 38.1306H34.0419V45.3405H36.2021V38.1306Z" fill="white"/>
</svg>
