<svg width="24" height="20" viewBox="0 0 24 20" fill="none" xmlns="http://www.w3.org/2000/svg">
<path d="M7.83128 19.6551C5.21768 19.6551 2.67608 18.9111 0.480082 17.5023C0.276082 17.3703 0.187282 17.1159 0.268882 16.8855C0.350482 16.6551 0.583282 16.5087 0.823282 16.5447C2.66408 16.7583 4.58648 16.3839 6.19928 15.4623C4.60568 14.9823 3.30728 13.7487 2.78408 12.1119C2.72648 11.9343 2.76728 11.7423 2.89208 11.6055C2.96648 11.5215 3.06728 11.4663 3.17528 11.4423C1.92968 10.4895 1.14248 8.99191 1.14248 7.34791C1.14248 7.16311 1.24088 6.96391 1.40168 6.86791C1.56248 6.77431 1.75928 6.74551 1.92008 6.83191C1.96568 6.85831 2.01368 6.88231 2.05928 6.90631C1.49288 6.07111 1.18088 5.07031 1.18088 4.02871C1.18088 3.12391 1.42088 2.23111 1.87688 1.44871C1.96328 1.29991 2.11688 1.20391 2.28728 1.18951C2.45768 1.17751 2.62328 1.24711 2.73368 1.37911C4.84808 3.97351 7.91048 5.61991 11.2129 5.95831C11.1985 5.79991 11.1913 5.63911 11.1913 5.48071C11.1913 2.65111 13.4953 0.347107 16.3249 0.347107C17.6401 0.347107 18.9121 0.855907 19.8601 1.75591C20.7337 1.55671 21.5689 1.22071 22.3513 0.757507C22.5385 0.649507 22.7737 0.663907 22.9441 0.798307C23.1145 0.935107 23.1817 1.16071 23.1169 1.36711C22.9513 1.88791 22.7041 2.37271 22.3873 2.80951C22.6057 2.73511 22.8169 2.64871 23.0281 2.55751C23.2393 2.46151 23.4913 2.51911 23.6401 2.69911C23.7889 2.87671 23.8033 3.13351 23.6737 3.32551C23.0665 4.23031 22.3249 5.01991 21.4705 5.67511C21.4729 5.78791 21.4753 5.90311 21.4753 6.01591C21.4753 12.7191 16.3705 19.6551 7.83128 19.6551ZM2.88728 17.5959C4.44248 18.2631 6.12008 18.6087 7.83368 18.6087C15.7177 18.6087 20.4313 12.2055 20.4313 6.01111C20.4313 5.81911 20.4265 5.62711 20.4193 5.43511C20.4121 5.25991 20.4937 5.09191 20.6353 4.98871C21.0121 4.71751 21.3649 4.41751 21.6913 4.09111C21.3505 4.17031 21.0049 4.23031 20.6545 4.27111C20.4121 4.30471 20.1769 4.15591 20.0977 3.92071C20.0185 3.68791 20.1121 3.43111 20.3233 3.30391C20.7385 3.05431 21.1033 2.73751 21.4009 2.37031C20.8801 2.56951 20.3425 2.72551 19.7929 2.83351C19.6177 2.86951 19.4353 2.81191 19.3105 2.67991C18.5401 1.85911 17.4529 1.38871 16.3249 1.38871C14.0713 1.38871 12.2377 3.22231 12.2377 5.47591C12.2377 5.78791 12.2737 6.10231 12.3433 6.40951C12.3793 6.56791 12.3409 6.73591 12.2353 6.86311C12.1297 6.98791 11.9737 7.07431 11.8081 7.05031C8.23928 6.87031 4.87688 5.28391 2.46248 2.66071C2.30888 3.09751 2.22728 3.56071 2.22728 4.02631C2.22728 5.39911 2.90648 6.66871 4.04408 7.42951C4.23848 7.55911 4.32248 7.80151 4.25288 8.02231C4.18088 8.24311 3.96008 8.37751 3.73928 8.38711C3.24008 8.37031 2.74568 8.28151 2.27288 8.12311C2.59688 9.74311 3.84248 11.0271 5.46728 11.3535C5.70488 11.4015 5.88008 11.6055 5.88728 11.8479C5.89448 12.0903 5.73608 12.3063 5.50328 12.3711C5.05208 12.4935 4.57928 12.5631 4.11608 12.5535C4.81688 13.7919 6.13208 14.5983 7.60088 14.6271C7.82168 14.6319 8.01608 14.7759 8.08568 14.9847C8.15528 15.1935 8.08568 15.4263 7.91288 15.5631C6.44168 16.7175 4.72088 17.4087 2.88728 17.5959Z" fill="white"/>
</svg>
