<svg width="80" height="80" viewBox="0 0 80 80" fill="none" xmlns="http://www.w3.org/2000/svg">
<rect width="80" height="80" rx="40" fill="#FDE1CD"/>
<path fill-rule="evenodd" clip-rule="evenodd" d="M50.3545 35.4654C50.3545 42.5124 44.9888 50.6407 35.1792 50.6407C32.2795 50.642 29.4405 49.8103 27 48.2444C28.3972 48.4148 29.8143 48.3076 31.1699 47.9289C32.5256 47.5502 33.7931 46.9075 34.8997 46.0376C33.7869 46.0151 32.709 45.6457 31.8162 44.9812C30.9235 44.3166 30.2604 43.3899 29.9196 42.3304C30.718 42.485 31.5412 42.4539 32.3257 42.2394C31.118 41.9962 30.0318 41.3422 29.2517 40.3887C28.4716 39.4352 28.0458 38.2411 28.0465 37.0091V36.943C28.7876 37.3532 29.6157 37.5812 30.4623 37.6082C29.3346 36.8534 28.5364 35.6977 28.2299 34.3757C27.9235 33.0537 28.1317 31.6647 28.8124 30.4907C30.1522 32.137 31.823 33.4835 33.7165 34.4427C35.61 35.402 37.684 35.9526 39.8039 36.059C39.539 34.9153 39.6584 33.7161 40.1436 32.6469C40.6287 31.5778 41.4527 30.6984 42.4879 30.1446C43.5232 29.5908 44.7121 29.3936 45.8707 29.5835C47.0293 29.7733 48.093 30.3397 48.8974 31.1949C50.0915 30.959 51.2367 30.5216 52.2839 29.9014C51.8848 31.1361 51.0515 32.1841 49.9385 32.8513C50.9955 32.7283 52.0278 32.4456 53 32.0128C52.2845 33.0845 51.3835 34.02 50.3393 34.7753C50.3502 35.0028 50.3545 35.2368 50.3545 35.4654Z" fill="#F66B03"/>
</svg>
