<svg width="80" height="81" viewBox="0 0 80 81" fill="none" xmlns="http://www.w3.org/2000/svg">
<g clip-path="url(#clip0_1481_12605)">
<path fill-rule="evenodd" clip-rule="evenodd" d="M50.3545 35.9395C50.3545 42.9866 44.9888 51.1148 35.1792 51.1148C32.2795 51.1161 29.4405 50.2844 27 48.7185C28.3972 48.8889 29.8143 48.7817 31.1699 48.403C32.5256 48.0243 33.7931 47.3816 34.8997 46.5117C33.7869 46.4892 32.709 46.1199 31.8162 45.4553C30.9235 44.7907 30.2604 43.8641 29.9196 42.8046C30.718 42.9592 31.5412 42.928 32.3257 42.7136C31.118 42.4703 30.0318 41.8163 29.2517 40.8628C28.4716 39.9094 28.0458 38.7152 28.0465 37.4832V37.4172C28.7876 37.8273 29.6157 38.0553 30.4623 38.0823C29.3346 37.3276 28.5364 36.1718 28.2299 34.8498C27.9235 33.5279 28.1317 32.1388 28.8124 30.9648C30.1522 32.6112 31.823 33.9576 33.7165 34.9168C35.61 35.8761 37.684 36.4268 39.8039 36.5332C39.539 35.3894 39.6584 34.1902 40.1436 33.1211C40.6287 32.0519 41.4527 31.1725 42.4879 30.6187C43.5232 30.065 44.7121 29.8678 45.8707 30.0576C47.0293 30.2475 48.093 30.8138 48.8974 31.669C50.0915 31.4332 51.2367 30.9957 52.2839 30.3755C51.8848 31.6102 51.0515 32.6583 49.9385 33.3254C50.9955 33.2024 52.0278 32.9197 53 32.4869C52.2845 33.5587 51.3835 34.4941 50.3393 35.2494C50.3502 35.4769 50.3545 35.7109 50.3545 35.9395Z" fill="white"/>
</g>
<rect x="1" y="1.47412" width="78" height="78" rx="39" stroke="#FAFAFA" stroke-width="2"/>
<defs>
<clipPath id="clip0_1481_12605">
<rect width="26" height="22.2857" fill="white" transform="translate(27 29.4741)"/>
</clipPath>
</defs>
</svg>
