<svg width="24" height="25" viewBox="0 0 24 25" fill="none" xmlns="http://www.w3.org/2000/svg">
<path d="M6.9 21.0361C8.4 21.9361 10.2 22.4361 12 22.4361C17.5 22.4361 22 17.9361 22 12.4361C22 6.93607 17.5 2.43607 12 2.43607C6.5 2.43607 2 6.93607 2 12.4361C2 14.2361 2.5 15.9361 3.3 17.4361L2.44044 20.7421C2.24572 21.491 2.93892 22.1678 3.68299 21.9552L6.9 21.0361Z" stroke="white" stroke-width="1.5" stroke-miterlimit="10" stroke-linecap="round" stroke-linejoin="round"/>
<path d="M16.5 15.2846C16.5 15.4466 16.4639 15.6131 16.3873 15.7751C16.3107 15.9371 16.2116 16.0901 16.0809 16.2341C15.86 16.4771 15.6167 16.6526 15.3418 16.7651C15.0714 16.8776 14.7784 16.9361 14.4629 16.9361C14.0033 16.9361 13.512 16.8281 12.9937 16.6076C12.4755 16.3871 11.9572 16.0901 11.4434 15.7166C10.9251 15.3386 10.4339 14.9201 9.9652 14.4566C9.501 13.9886 9.08187 13.4981 8.70781 12.9851C8.33826 12.4721 8.04081 11.9591 7.82449 11.4506C7.60816 10.9376 7.5 10.4471 7.5 9.97907C7.5 9.67307 7.55408 9.38057 7.66224 9.11057C7.77041 8.83607 7.94166 8.58407 8.18052 8.35907C8.46895 8.07557 8.78443 7.93607 9.11793 7.93607C9.24412 7.93607 9.37031 7.96307 9.48297 8.01707C9.60015 8.07107 9.70381 8.15207 9.78493 8.26907L10.8305 9.74057C10.9116 9.85307 10.9702 9.95657 11.0108 10.0556C11.0513 10.1501 11.0739 10.2446 11.0739 10.3301C11.0739 10.4381 11.0423 10.5461 10.9792 10.6496C10.9206 10.7531 10.835 10.8611 10.7268 10.9691L10.3843 11.3246C10.3348 11.3741 10.3122 11.4326 10.3122 11.5046C10.3122 11.5406 10.3167 11.5721 10.3257 11.6081C10.3393 11.6441 10.3528 11.6711 10.3618 11.6981C10.4429 11.8466 10.5826 12.0401 10.7809 12.2741C10.9837 12.5081 11.2 12.7466 11.4344 12.9851C11.6778 13.2236 11.9121 13.4441 12.151 13.6466C12.3853 13.8446 12.5791 13.9796 12.7323 14.0606C12.7549 14.0696 12.7819 14.0831 12.8135 14.0966C12.8495 14.1101 12.8856 14.1146 12.9261 14.1146C13.0028 14.1146 13.0613 14.0876 13.1109 14.0381L13.4534 13.7006C13.5661 13.5881 13.6743 13.5026 13.7779 13.4486C13.8816 13.3856 13.9852 13.3541 14.0979 13.3541C14.1835 13.3541 14.2737 13.3721 14.3728 13.4126C14.472 13.4531 14.5756 13.5116 14.6883 13.5881L16.18 14.6456C16.2972 14.7266 16.3783 14.8211 16.4279 14.9336C16.473 15.0461 16.5 15.1586 16.5 15.2846Z" stroke="white" stroke-width="1.5" stroke-miterlimit="10"/>
</svg>
